<svg width="106" height="76" viewBox="0 0 106 76" fill="none" xmlns="http://www.w3.org/2000/svg">
<g clip-path="url(#clip0_129_19)">
<g filter="url(#filter0_n_129_19)">
<path d="M47.1768 55.472C45.1288 63.408 43.7208 69.008 42.9528 72.272C42.5688 73.424 41.8008 74 40.6488 74H3.49675C2.40875 74 1.73675 73.68 1.48075 73.04C1.35275 72.528 1.28875 72.176 1.28875 71.984C1.28875 71.6 1.38475 71.184 1.57675 70.736C3.43275 66.128 5.89675 61.84 8.96875 57.872C12.0408 53.904 16.1048 49.168 21.1608 43.664C24.5528 40.016 27.1448 37.008 28.9368 34.64C30.7928 32.272 32.2328 29.872 33.2568 27.44C34.2808 24.944 34.7928 22.288 34.7928 19.472C34.7928 15.568 33.7048 12.368 31.5288 9.872C29.4168 7.376 26.3128 6.128 22.2168 6.128C19.2728 6.128 16.7448 6.8 14.6328 8.144C12.5848 9.424 11.5608 11.12 11.5608 13.232C11.5608 14.064 11.7208 14.8 12.0408 15.44C12.4248 16.08 12.9368 16.752 13.5768 17.456C14.2808 18.224 14.7928 18.96 15.1128 19.664C15.4968 20.304 15.6888 21.104 15.6888 22.064C15.6888 23.856 15.0808 25.296 13.8648 26.384C12.7128 27.408 11.2408 27.92 9.44875 27.92C7.91275 27.92 6.44075 27.184 5.03275 25.712C3.68875 24.24 3.01675 22.288 3.01675 19.856C3.01675 17.232 3.84875 14.608 5.51275 11.984C7.17675 9.296 9.60875 7.088 12.8088 5.36C16.0088 3.632 19.7848 2.768 24.1368 2.768C28.8728 2.768 32.8728 3.632 36.1368 5.36C39.4648 7.024 41.9288 9.296 43.5288 12.176C45.1288 14.992 45.9288 18.096 45.9288 21.488C45.9288 24.624 45.3208 27.344 44.1048 29.648C42.8888 31.952 41.3528 33.968 39.4968 35.696C37.6408 37.424 34.9528 39.6 31.4328 42.224C28.7448 44.208 26.5688 45.872 24.9048 47.216C19.2728 51.632 14.6328 56.752 10.9848 62.576C10.7288 62.896 10.6008 63.28 10.6008 63.728C10.6008 64.112 10.7608 64.432 11.0808 64.688C11.4008 64.88 11.8168 64.976 12.3288 64.976H22.8888C27.9448 64.976 31.7848 64.72 34.4088 64.208C37.0328 63.632 39.0808 62.608 40.5528 61.136C42.0888 59.664 43.5288 57.392 44.8728 54.32C45.0648 53.936 45.2888 53.744 45.5448 53.744L46.3128 53.936C46.9528 54.192 47.2728 54.512 47.2728 54.896L47.1768 55.472ZM80.7843 75.344C76.7523 75.344 72.9123 74 69.2643 71.312C65.6803 68.56 62.7363 64.464 60.4323 59.024C58.1923 53.52 57.0723 46.864 57.0723 39.056C57.0723 31.248 58.1923 24.624 60.4323 19.184C62.7363 13.68 65.7123 9.552 69.3603 6.8C73.0083 4.048 76.8803 2.672 80.9763 2.672C85.0083 2.672 88.8163 4.048 92.4003 6.8C96.0483 9.552 98.9923 13.68 101.232 19.184C103.536 24.624 104.688 31.248 104.688 39.056C104.688 46.864 103.536 53.52 101.232 59.024C98.9283 64.464 95.9523 68.56 92.3043 71.312C88.6563 74 84.8163 75.344 80.7843 75.344ZM80.9763 71.984C84.9443 71.984 88.0163 69.264 90.1923 63.824C92.4323 58.384 93.5523 50.128 93.5523 39.056C93.5523 27.984 92.4323 19.728 90.1923 14.288C88.0163 8.784 84.9443 6.032 80.9763 6.032C76.9443 6.032 73.8083 8.784 71.5683 14.288C69.3283 19.728 68.2083 27.984 68.2083 39.056C68.2083 50.128 69.3283 58.384 71.5683 63.824C73.8083 69.264 76.9443 71.984 80.9763 71.984Z" fill="url(#paint0_linear_129_19)"/>
</g>
</g>
<defs>
<filter id="filter0_n_129_19" x="1.28906" y="2.672" width="103.399" height="72.672" filterUnits="userSpaceOnUse" color-interpolation-filters="sRGB">
<feFlood flood-opacity="0" result="BackgroundImageFix"/>
<feBlend mode="normal" in="SourceGraphic" in2="BackgroundImageFix" result="shape"/>
<feTurbulence type="fractalNoise" baseFrequency="0.66666668653488159 0.66666668653488159" stitchTiles="stitch" numOctaves="3" result="noise" seed="1949" />
<feColorMatrix in="noise" type="luminanceToAlpha" result="alphaNoise" />
<feComponentTransfer in="alphaNoise" result="coloredNoise1">
<feFuncA type="discrete" tableValues="1 1 1 1 1 1 1 1 1 1 1 1 1 1 1 1 1 1 1 1 1 1 1 1 1 1 1 1 1 1 1 1 1 1 1 1 1 1 1 1 1 1 1 1 1 1 1 1 1 1 1 0 0 0 0 0 0 0 0 0 0 0 0 0 0 0 0 0 0 0 0 0 0 0 0 0 0 0 0 0 0 0 0 0 0 0 0 0 0 0 0 0 0 0 0 0 0 0 0 0 "/>
</feComponentTransfer>
<feComposite operator="in" in2="shape" in="coloredNoise1" result="noise1Clipped" />
<feFlood flood-color="rgba(0, 0, 0, 0.25)" result="color1Flood" />
<feComposite operator="in" in2="noise1Clipped" in="color1Flood" result="color1" />
<feMerge result="effect1_noise_129_19">
<feMergeNode in="shape" />
<feMergeNode in="color1" />
</feMerge>
</filter>
<linearGradient id="paint0_linear_129_19" x1="52" y1="-10" x2="52" y2="74" gradientUnits="userSpaceOnUse">
<stop offset="0.264423" stop-color="#FF7372"/>
<stop offset="1" stop-color="#5B1211"/>
</linearGradient>
<clipPath id="clip0_129_19">
<rect width="106" height="76" fill="white"/>
</clipPath>
</defs>
</svg>
