<svg width="822" height="208" viewBox="0 0 822 208" fill="none" xmlns="http://www.w3.org/2000/svg">
<g clip-path="url(#clip0_129_15)">
<g filter="url(#filter0_n_129_15)">
<path d="M61.832 201C47.7487 201 36.4987 196.75 28.082 188.25C19.7487 179.75 15.582 168.583 15.582 154.75V51.75C15.582 37.8333 19.7487 26.6667 28.082 18.25C36.4987 9.74999 47.7487 5.49999 61.832 5.49999C75.9987 5.49999 87.2487 9.74999 95.582 18.25C103.915 26.6667 108.082 37.8333 108.082 51.75V154.75C108.082 168.583 103.915 179.75 95.582 188.25C87.2487 196.75 75.9987 201 61.832 201ZM61.832 167.25C65.832 167.25 68.9154 166.125 71.082 163.875C73.2487 161.542 74.332 158.5 74.332 154.75V51.75C74.332 48 73.2487 45 71.082 42.75C68.9154 40.4167 65.832 39.25 61.832 39.25C57.832 39.25 54.7487 40.4167 52.582 42.75C50.4154 45 49.332 48 49.332 51.75V154.75C49.332 158.5 50.4154 161.542 52.582 163.875C54.7487 166.125 57.832 167.25 61.832 167.25ZM69.832 39.25H88.832L53.832 167.25H35.082L69.832 39.25ZM176.402 201C162.319 201 151.069 196.75 142.652 188.25C134.319 179.75 130.152 168.583 130.152 154.75V51.75C130.152 37.8333 134.319 26.6667 142.652 18.25C151.069 9.74999 162.319 5.49999 176.402 5.49999C190.569 5.49999 201.819 9.74999 210.152 18.25C218.486 26.6667 222.652 37.8333 222.652 51.75V154.75C222.652 168.583 218.486 179.75 210.152 188.25C201.819 196.75 190.569 201 176.402 201ZM176.402 167.25C180.402 167.25 183.486 166.125 185.652 163.875C187.819 161.542 188.902 158.5 188.902 154.75V51.75C188.902 48 187.819 45 185.652 42.75C183.486 40.4167 180.402 39.25 176.402 39.25C172.402 39.25 169.319 40.4167 167.152 42.75C164.986 45 163.902 48 163.902 51.75V154.75C163.902 158.5 164.986 161.542 167.152 163.875C169.319 166.125 172.402 167.25 176.402 167.25ZM184.402 39.25H203.402L168.402 167.25H149.652L184.402 39.25ZM250.473 118.25V84.5H284.223V118.25H250.473ZM250.473 197V163.25H284.223V197H250.473ZM358.18 201C344.096 201 332.846 196.75 324.43 188.25C316.096 179.75 311.93 168.583 311.93 154.75V51.75C311.93 37.8333 316.096 26.6667 324.43 18.25C332.846 9.74999 344.096 5.49999 358.18 5.49999C372.346 5.49999 383.596 9.74999 391.93 18.25C400.263 26.6667 404.43 37.8333 404.43 51.75V154.75C404.43 168.583 400.263 179.75 391.93 188.25C383.596 196.75 372.346 201 358.18 201ZM358.18 167.25C362.18 167.25 365.263 166.125 367.43 163.875C369.596 161.542 370.68 158.5 370.68 154.75V51.75C370.68 48 369.596 45 367.43 42.75C365.263 40.4167 362.18 39.25 358.18 39.25C354.18 39.25 351.096 40.4167 348.93 42.75C346.763 45 345.68 48 345.68 51.75V154.75C345.68 158.5 346.763 161.542 348.93 163.875C351.096 166.125 354.18 167.25 358.18 167.25ZM366.18 39.25H385.18L350.18 167.25H331.43L366.18 39.25ZM472.75 201C458.667 201 447.417 196.75 439 188.25C430.667 179.75 426.5 168.583 426.5 154.75V51.75C426.5 37.8333 430.667 26.6667 439 18.25C447.417 9.74999 458.667 5.49999 472.75 5.49999C486.917 5.49999 498.167 9.74999 506.5 18.25C514.833 26.6667 519 37.8333 519 51.75V154.75C519 168.583 514.833 179.75 506.5 188.25C498.167 196.75 486.917 201 472.75 201ZM472.75 167.25C476.75 167.25 479.833 166.125 482 163.875C484.167 161.542 485.25 158.5 485.25 154.75V51.75C485.25 48 484.167 45 482 42.75C479.833 40.4167 476.75 39.25 472.75 39.25C468.75 39.25 465.667 40.4167 463.5 42.75C461.333 45 460.25 48 460.25 51.75V154.75C460.25 158.5 461.333 161.542 463.5 163.875C465.667 166.125 468.75 167.25 472.75 167.25ZM480.75 39.25H499.75L464.75 167.25H446L480.75 39.25ZM546.82 118.25V84.5H580.57V118.25H546.82ZM546.82 197V163.25H580.57V197H546.82ZM654.527 201C640.444 201 629.194 196.75 620.777 188.25C612.444 179.75 608.277 168.583 608.277 154.75V51.75C608.277 37.8333 612.444 26.6667 620.777 18.25C629.194 9.74999 640.444 5.49999 654.527 5.49999C668.694 5.49999 679.944 9.74999 688.277 18.25C696.611 26.6667 700.777 37.8333 700.777 51.75V154.75C700.777 168.583 696.611 179.75 688.277 188.25C679.944 196.75 668.694 201 654.527 201ZM654.527 167.25C658.527 167.25 661.611 166.125 663.777 163.875C665.944 161.542 667.027 158.5 667.027 154.75V51.75C667.027 48 665.944 45 663.777 42.75C661.611 40.4167 658.527 39.25 654.527 39.25C650.527 39.25 647.444 40.4167 645.277 42.75C643.111 45 642.027 48 642.027 51.75V154.75C642.027 158.5 643.111 161.542 645.277 163.875C647.444 166.125 650.527 167.25 654.527 167.25ZM662.527 39.25H681.527L646.527 167.25H627.777L662.527 39.25ZM769.098 201C755.014 201 743.764 196.75 735.348 188.25C727.014 179.75 722.848 168.583 722.848 154.75V51.75C722.848 37.8333 727.014 26.6667 735.348 18.25C743.764 9.74999 755.014 5.49999 769.098 5.49999C783.264 5.49999 794.514 9.74999 802.848 18.25C811.181 26.6667 815.348 37.8333 815.348 51.75V154.75C815.348 168.583 811.181 179.75 802.848 188.25C794.514 196.75 783.264 201 769.098 201ZM769.098 167.25C773.098 167.25 776.181 166.125 778.348 163.875C780.514 161.542 781.598 158.5 781.598 154.75V51.75C781.598 48 780.514 45 778.348 42.75C776.181 40.4167 773.098 39.25 769.098 39.25C765.098 39.25 762.014 40.4167 759.848 42.75C757.681 45 756.598 48 756.598 51.75V154.75C756.598 158.5 757.681 161.542 759.848 163.875C762.014 166.125 765.098 167.25 769.098 167.25ZM777.098 39.25H796.098L761.098 167.25H742.348L777.098 39.25Z" fill="url(#paint0_linear_129_15)"/>
</g>
</g>
<defs>
<filter id="filter0_n_129_15" x="15.582" y="5.5" width="799.766" height="195.5" filterUnits="userSpaceOnUse" color-interpolation-filters="sRGB">
<feFlood flood-opacity="0" result="BackgroundImageFix"/>
<feBlend mode="normal" in="SourceGraphic" in2="BackgroundImageFix" result="shape"/>
<feTurbulence type="fractalNoise" baseFrequency="2 2" stitchTiles="stitch" numOctaves="3" result="noise" seed="9056" />
<feColorMatrix in="noise" type="luminanceToAlpha" result="alphaNoise" />
<feComponentTransfer in="alphaNoise" result="coloredNoise1">
<feFuncA type="discrete" tableValues="1 1 1 1 1 1 1 1 1 1 1 1 1 1 1 1 1 1 1 1 1 1 1 1 1 1 1 1 1 1 1 1 1 1 1 1 1 1 1 1 1 1 1 1 1 1 1 1 1 1 1 0 0 0 0 0 0 0 0 0 0 0 0 0 0 0 0 0 0 0 0 0 0 0 0 0 0 0 0 0 0 0 0 0 0 0 0 0 0 0 0 0 0 0 0 0 0 0 0 0 "/>
</feComponentTransfer>
<feComposite operator="in" in2="shape" in="coloredNoise1" result="noise1Clipped" />
<feFlood flood-color="rgba(255, 255, 255, 0.25)" result="color1Flood" />
<feComposite operator="in" in2="noise1Clipped" in="color1Flood" result="color1" />
<feMerge result="effect1_noise_129_15">
<feMergeNode in="shape" />
<feMergeNode in="color1" />
</feMerge>
</filter>
<linearGradient id="paint0_linear_129_15" x1="415.5" y1="48" x2="415.5" y2="199" gradientUnits="userSpaceOnUse">
<stop stop-color="#FF7372"/>
<stop offset="0.807692" stop-color="#5B1211"/>
</linearGradient>
<clipPath id="clip0_129_15">
<rect width="822" height="208" fill="white"/>
</clipPath>
</defs>
</svg>
