<svg width="1310" height="341" viewBox="0 0 1310 341" fill="none" xmlns="http://www.w3.org/2000/svg">
<g clip-path="url(#clip0_125_7)">
<g filter="url(#filter0_n_125_7)">
<path d="M109.736 318L64.8858 185.01L55.1358 199.83V113.64L113.636 25.5H170.186L101.156 130.02L166.286 318H109.736ZM6.38584 318V25.5H59.0358V318H6.38584ZM234.527 324.24C212.557 324.24 195.007 317.61 181.877 304.35C168.877 291.09 162.377 273.67 162.377 252.09V91.41C162.377 69.7 168.877 52.28 181.877 39.15C195.007 25.89 212.557 19.26 234.527 19.26C256.627 19.26 274.177 25.89 287.177 39.15C300.177 52.28 306.677 69.7 306.677 91.41V252.09C306.677 273.67 300.177 291.09 287.177 304.35C274.177 317.61 256.627 324.24 234.527 324.24ZM234.527 271.59C240.767 271.59 245.577 269.835 248.957 266.325C252.337 262.685 254.027 257.94 254.027 252.09V91.41C254.027 85.56 252.337 80.88 248.957 77.37C245.577 73.73 240.767 71.91 234.527 71.91C228.287 71.91 223.477 73.73 220.097 77.37C216.717 80.88 215.027 85.56 215.027 91.41V252.09C215.027 257.94 216.717 262.685 220.097 266.325C223.477 269.835 228.287 271.59 234.527 271.59ZM324.282 318V25.5H396.432C418.532 25.5 436.082 32.13 449.082 45.39C462.082 58.52 468.582 75.94 468.582 97.65V245.85C468.582 267.43 462.082 284.85 449.082 298.11C436.082 311.37 418.532 318 396.432 318H324.282ZM376.932 265.35H396.432C402.672 265.35 407.482 263.595 410.862 260.085C414.242 256.445 415.932 251.7 415.932 245.85V97.65C415.932 91.8 414.242 87.12 410.862 83.61C407.482 79.97 402.672 78.15 396.432 78.15H376.932V265.35ZM552.422 324.24C530.452 324.24 512.902 317.61 499.772 304.35C486.772 291.09 480.272 273.67 480.272 252.09V91.41C480.272 69.7 486.772 52.28 499.772 39.15C512.902 25.89 530.452 19.26 552.422 19.26C574.522 19.26 592.072 25.89 605.072 39.15C618.072 52.28 624.572 69.7 624.572 91.41V252.09C624.572 273.67 618.072 291.09 605.072 304.35C592.072 317.61 574.522 324.24 552.422 324.24ZM552.422 271.59C558.662 271.59 563.472 269.835 566.852 266.325C570.232 262.685 571.922 257.94 571.922 252.09V91.41C571.922 85.56 570.232 80.88 566.852 77.37C563.472 73.73 558.662 71.91 552.422 71.91C546.182 71.91 541.372 73.73 537.992 77.37C534.612 80.88 532.922 85.56 532.922 91.41V252.09C532.922 257.94 534.612 262.685 537.992 266.325C541.372 269.835 546.182 271.59 552.422 271.59ZM719.099 318V78.15H676.199V25.5H814.649V78.15H771.749V318H719.099ZM781.681 318L837.061 25.5H894.001L948.211 318H894.391L887.761 272.37H842.521L835.501 318H781.681ZM850.321 219.72H879.961L862.021 96.48H869.041L850.321 219.72ZM1050.79 318L1005.94 185.01L996.194 199.83V113.64L1054.69 25.5H1111.24L1042.21 130.02L1107.34 318H1050.79ZM947.444 318V25.5H1000.09V318H947.444ZM1085.1 318L1140.48 25.5H1197.42L1251.63 318H1197.81L1191.18 272.37H1145.94L1138.92 318H1085.1ZM1153.74 219.72H1183.38L1165.44 96.48H1172.46L1153.74 219.72ZM1303.52 318H1250.87V25.5H1303.52V318Z" fill="url(#paint0_linear_125_7)"/>
</g>
</g>
<defs>
<filter id="filter0_n_125_7" x="6.38574" y="19.26" width="1297.13" height="304.98" filterUnits="userSpaceOnUse" color-interpolation-filters="sRGB">
<feFlood flood-opacity="0" result="BackgroundImageFix"/>
<feBlend mode="normal" in="SourceGraphic" in2="BackgroundImageFix" result="shape"/>
<feTurbulence type="fractalNoise" baseFrequency="3.3333332538604736 3.3333332538604736" stitchTiles="stitch" numOctaves="3" result="noise" seed="9056" />
<feColorMatrix in="noise" type="luminanceToAlpha" result="alphaNoise" />
<feComponentTransfer in="alphaNoise" result="coloredNoise1">
<feFuncA type="discrete" tableValues="1 1 1 1 1 1 1 1 1 1 1 1 1 1 1 1 1 1 1 1 1 1 1 1 1 1 1 1 1 1 1 1 1 1 1 1 1 1 1 1 1 1 1 1 1 1 1 1 1 1 1 0 0 0 0 0 0 0 0 0 0 0 0 0 0 0 0 0 0 0 0 0 0 0 0 0 0 0 0 0 0 0 0 0 0 0 0 0 0 0 0 0 0 0 0 0 0 0 0 0 "/>
</feComponentTransfer>
<feComposite operator="in" in2="shape" in="coloredNoise1" result="noise1Clipped" />
<feFlood flood-color="rgba(255, 255, 255, 0.25)" result="color1Flood" />
<feComposite operator="in" in2="noise1Clipped" in="color1Flood" result="color1" />
<feMerge result="effect1_noise_125_7">
<feMergeNode in="shape" />
<feMergeNode in="color1" />
</feMerge>
</filter>
<linearGradient id="paint0_linear_125_7" x1="655" y1="0" x2="655" y2="407" gradientUnits="userSpaceOnUse">
<stop stop-color="#FF7372"/>
<stop offset="0.807692" stop-color="#5B1211"/>
</linearGradient>
<clipPath id="clip0_125_7">
<rect width="1310" height="341" fill="white"/>
</clipPath>
</defs>
</svg>
