<svg width="373" height="122" viewBox="0 0 373 122" fill="none" xmlns="http://www.w3.org/2000/svg">
<g clip-path="url(#clip0_211_3)">
<g filter="url(#filter0_n_211_3)">
<path d="M1.53887 118V5.49999H29.2889C37.7889 5.49999 44.5389 8.04999 49.5389 13.15C54.5389 18.2 57.0389 24.9 57.0389 33.25V48.25C57.0389 56.55 54.5389 63.25 49.5389 68.35C44.5389 73.45 37.7889 76 29.2889 76H21.7889V118H1.53887ZM21.7889 55.75H29.2889C31.6889 55.75 33.5389 55.075 34.8389 53.725C36.1389 52.325 36.7889 50.5 36.7889 48.25V33.25C36.7889 31 36.1389 29.2 34.8389 27.85C33.5389 26.45 31.6889 25.75 29.2889 25.75H21.7889V55.75ZM87.7479 5.49999V97.75H110.998V118H67.4979V5.49999H87.7479ZM110.987 118L132.287 5.49999H154.187L175.037 118H154.337L151.787 100.45H134.387L131.687 118H110.987ZM137.387 80.2H148.787L141.887 32.8H144.587L137.387 80.2ZM183.742 118V5.49999H198.742L224.392 78.4L218.992 78.55V5.49999H237.742V118H222.742L197.092 45.1L202.492 44.95V118H183.742ZM301.621 5.49999V25.75H275.371V48.25H297.571V68.5H275.371V97.75H301.621V118H255.121V5.49999H301.621ZM338.785 120.4C330.335 120.4 323.585 117.85 318.535 112.75C313.535 107.65 311.035 100.95 311.035 92.65V86.65H331.285V92.65C331.285 94.9 331.935 96.725 333.235 98.125C334.535 99.475 336.385 100.15 338.785 100.15C341.185 100.15 343.035 99.475 344.335 98.125C345.635 96.725 346.285 94.9 346.285 92.65V81.1C346.285 79.8 346.235 78.775 346.135 78.025C346.035 77.275 345.76 76.675 345.31 76.225C344.91 75.775 344.185 75.375 343.135 75.025C342.135 74.625 340.685 74.15 338.785 73.6C331.835 71.5 326.46 69.725 322.66 68.275C318.86 66.775 316.135 65.175 314.485 63.475C312.835 61.775 311.835 59.575 311.485 56.875C311.185 54.125 311.035 50.45 311.035 45.85V30.85C311.035 22.5 313.535 15.8 318.535 10.75C323.585 5.65 330.335 3.1 338.785 3.1C347.285 3.1 354.035 5.65 359.035 10.75C364.035 15.8 366.535 22.5 366.535 30.85V36.85H346.285V30.85C346.285 28.6 345.635 26.8 344.335 25.45C343.035 24.05 341.185 23.35 338.785 23.35C336.385 23.35 334.535 24.05 333.235 25.45C331.935 26.8 331.285 28.6 331.285 30.85V45.85C331.285 47.15 331.335 48.175 331.435 48.925C331.535 49.675 331.785 50.275 332.185 50.725C332.635 51.175 333.385 51.6 334.435 52C335.485 52.35 336.935 52.8 338.785 53.35C345.735 55.45 351.11 57.25 354.91 58.75C358.71 60.2 361.435 61.775 363.085 63.475C364.735 65.175 365.71 67.4 366.01 70.15C366.36 72.85 366.535 76.5 366.535 81.1V92.65C366.535 100.95 364.035 107.65 359.035 112.75C354.035 117.85 347.285 120.4 338.785 120.4Z" fill="url(#paint0_linear_211_3)"/>
</g>
</g>
<defs>
<filter id="filter0_n_211_3" x="1.53906" y="3.1001" width="364.996" height="117.3" filterUnits="userSpaceOnUse" color-interpolation-filters="sRGB">
<feFlood flood-opacity="0" result="BackgroundImageFix"/>
<feBlend mode="normal" in="SourceGraphic" in2="BackgroundImageFix" result="shape"/>
<feTurbulence type="fractalNoise" baseFrequency="2 2" stitchTiles="stitch" numOctaves="3" result="noise" seed="9056" />
<feColorMatrix in="noise" type="luminanceToAlpha" result="alphaNoise" />
<feComponentTransfer in="alphaNoise" result="coloredNoise1">
<feFuncA type="discrete" tableValues="1 1 1 1 1 1 1 1 1 1 1 1 1 1 1 1 1 1 1 1 1 1 1 1 1 1 1 1 1 1 1 1 1 1 1 1 1 1 1 1 1 1 1 1 1 1 1 1 1 1 1 0 0 0 0 0 0 0 0 0 0 0 0 0 0 0 0 0 0 0 0 0 0 0 0 0 0 0 0 0 0 0 0 0 0 0 0 0 0 0 0 0 0 0 0 0 0 0 0 0 "/>
</feComponentTransfer>
<feComposite operator="in" in2="shape" in="coloredNoise1" result="noise1Clipped" />
<feFlood flood-color="rgba(255, 255, 255, 0.25)" result="color1Flood" />
<feComposite operator="in" in2="noise1Clipped" in="color1Flood" result="color1" />
<feMerge result="effect1_noise_211_3">
<feMergeNode in="shape" />
<feMergeNode in="color1" />
</feMerge>
</filter>
<linearGradient id="paint0_linear_211_3" x1="182" y1="5" x2="182" y2="142" gradientUnits="userSpaceOnUse">
<stop offset="0.370192" stop-color="#FF7372"/>
<stop offset="0.807692" stop-color="white"/>
</linearGradient>
<clipPath id="clip0_211_3">
<rect width="373" height="122" fill="white"/>
</clipPath>
</defs>
</svg>
